<?xml version="1.0" encoding="UTF-8" standalone="no"?>
<!-- Created with Inkscape (http://www.inkscape.org/) -->

<svg
   xmlns:dc="http://purl.org/dc/elements/1.1/"
   xmlns:cc="http://creativecommons.org/ns#"
   xmlns:rdf="http://www.w3.org/1999/02/22-rdf-syntax-ns#"
   xmlns:svg="http://www.w3.org/2000/svg"
   xmlns="http://www.w3.org/2000/svg"
   xmlns:sodipodi="http://sodipodi.sourceforge.net/DTD/sodipodi-0.dtd"
   xmlns:inkscape="http://www.inkscape.org/namespaces/inkscape"
   width="127mm"
   height="128.5mm"
   viewBox="0 0 127 128.5"
   version="1.1"
   id="svg3852"
   inkscape:version="0.92.4 (5da689c313, 2019-01-14)"
   sodipodi:docname="megaseq.svg">
  <defs
     id="defs3846" />
  <sodipodi:namedview
     id="base"
     pagecolor="#ffffff"
     bordercolor="#666666"
     borderopacity="1.0"
     inkscape:pageopacity="0.0"
     inkscape:pageshadow="2"
     inkscape:zoom="1.4"
     inkscape:cx="130.9918"
     inkscape:cy="253.83276"
     inkscape:document-units="mm"
     inkscape:current-layer="layer2"
     showgrid="false"
     inkscape:window-width="1280"
     inkscape:window-height="961"
     inkscape:window-x="1912"
     inkscape:window-y="-8"
     inkscape:window-maximized="1" />
  <metadata
     id="metadata3849">
    <rdf:RDF>
      <cc:Work
         rdf:about="">
        <dc:format>image/svg+xml</dc:format>
        <dc:type
           rdf:resource="http://purl.org/dc/dcmitype/StillImage" />
        <dc:title />
      </cc:Work>
    </rdf:RDF>
  </metadata>
  <g
     inkscape:label="Calque 1"
     inkscape:groupmode="layer"
     id="layer1"
     style="display:inline"
     transform="translate(0,-168.5)">
    <rect
       style="fill:#ececec;stroke-width:0.26375273"
       id="rect3856"
       width="127"
       height="128.5"
       x="-0.26726952"
       y="168.5" />
    <rect
       style="fill:#999999;stroke-width:0.22555907"
       id="rect3854"
       width="71.010002"
       height="71.010002"
       x="27.72773"
       y="219.98999" />
    <rect
       style="fill:#1a1a1a;stroke-width:0.26852593"
       id="rect3858"
       width="117"
       height="34.745037"
       x="5"
       y="179.25496" />
    <g
       aria-label="Mega Seq"
       transform="scale(0.96430063,1.037021)"
       style="font-style:normal;font-weight:normal;font-size:8.57809258px;line-height:1.25;font-family:sans-serif;letter-spacing:0px;word-spacing:0px;fill:#000000;fill-opacity:1;stroke:none;stroke-width:0.21445231"
       id="text3862">
      <path
         d="m 45.240491,163.76106 h 1.260745 l 1.595826,4.25554 1.604204,-4.25554 h 1.260745 v 6.25347 h -0.825138 v -5.49116 l -1.612581,4.28905 h -0.85027 l -1.612581,-4.28905 v 5.49116 h -0.82095 z"
         style="stroke-width:0.21445231"
         id="path4810" />
      <path
         d="m 56.624893,167.47628 v 0.37697 h -3.54349 q 0.05026,0.79582 0.477492,1.21467 0.431417,0.41466 1.197917,0.41466 0.443983,0 0.858647,-0.1089 0.418852,-0.1089 0.829327,-0.3267 v 0.7288 q -0.414663,0.17592 -0.85027,0.26807 -0.435606,0.0921 -0.883778,0.0921 -1.122524,0 -1.780122,-0.65341 -0.653409,-0.65341 -0.653409,-1.76755 0,-1.15185 0.619901,-1.8262 0.62409,-0.67854 1.679597,-0.67854 0.946606,0 1.495303,0.61153 0.552885,0.60733 0.552885,1.65446 z m -0.770688,-0.22618 q -0.0084,-0.63246 -0.356025,-1.00943 -0.343459,-0.37697 -0.913097,-0.37697 -0.645033,0 -1.034565,0.3644 -0.385344,0.3644 -0.443984,1.02619 z"
         style="stroke-width:0.21445231"
         id="path4812" />
      <path
         d="m 60.976767,167.6145 q 0,-0.8377 -0.347647,-1.29844 -0.343459,-0.46074 -0.967549,-0.46074 -0.619901,0 -0.967548,0.46074 -0.343459,0.46074 -0.343459,1.29844 0,0.83352 0.343459,1.29426 0.347647,0.46073 0.967548,0.46073 0.62409,0 0.967549,-0.46073 0.347647,-0.46074 0.347647,-1.29426 z m 0.770688,1.81782 q 0,1.19792 -0.531942,1.78012 -0.531942,0.5864 -1.629335,0.5864 -0.406287,0 -0.7665,-0.0628 -0.360212,-0.0586 -0.699483,-0.1843 v -0.74974 q 0.339271,0.18429 0.670164,0.27225 0.330893,0.088 0.674352,0.088 0.758122,0 1.135089,-0.39791 0.376967,-0.39372 0.376967,-1.19373 v -0.38115 q -0.238746,0.41466 -0.611524,0.6199 -0.372778,0.20524 -0.892155,0.20524 -0.862836,0 -1.390589,-0.6576 -0.527754,-0.6576 -0.527754,-1.74243 0,-1.08901 0.527754,-1.74661 0.527753,-0.6576 1.390589,-0.6576 0.519377,0 0.892155,0.20524 0.372778,0.20524 0.611524,0.6199 v -0.71205 h 0.770688 z"
         style="stroke-width:0.21445231"
         id="path4814" />
      <path
         d="m 65.466862,167.65639 q -0.93404,0 -1.294253,0.21361 -0.360213,0.21362 -0.360213,0.72881 0,0.41047 0.268065,0.65341 0.272254,0.23874 0.73718,0.23874 0.640844,0 1.026188,-0.45236 0.389533,-0.45655 0.389533,-1.21048 v -0.17173 z m 1.537188,-0.31833 v 2.67647 h -0.770688 v -0.71205 q -0.263877,0.42723 -0.657598,0.63246 -0.393721,0.20105 -0.96336,0.20105 -0.720426,0 -1.147655,-0.40209 -0.423041,-0.40629 -0.423041,-1.08483 0,-0.79163 0.527754,-1.19373 0.531942,-0.4021 1.583261,-0.4021 h 1.080639 v -0.0754 q 0,-0.53194 -0.351836,-0.82095 -0.347648,-0.2932 -0.980114,-0.2932 -0.402098,0 -0.783254,0.0963 -0.381155,0.0963 -0.732991,0.28901 V 165.537 q 0.42304,-0.16336 0.82095,-0.24294 0.39791,-0.0838 0.774877,-0.0838 1.01781,0 1.520433,0.52776 0.502623,0.52775 0.502623,1.60001 z"
         style="stroke-width:0.21445231"
         id="path4816" />
      <path
         d="m 75.108839,163.9663 v 0.82514 q -0.48168,-0.23037 -0.908909,-0.34346 -0.42723,-0.11309 -0.825139,-0.11309 -0.691106,0 -1.068073,0.26807 -0.372779,0.26806 -0.372779,0.76231 0,0.41466 0.247123,0.62828 0.251311,0.20942 0.946606,0.33927 l 0.511,0.10471 q 0.946606,0.18011 1.394777,0.63665 0.452361,0.45236 0.452361,1.21468 0,0.9089 -0.611524,1.37802 -0.607336,0.46911 -1.784311,0.46911 -0.443983,0 -0.946606,-0.10052 -0.498434,-0.10053 -1.034564,-0.29739 v -0.87121 q 0.515188,0.28901 1.009433,0.43561 0.494246,0.1466 0.971737,0.1466 0.724615,0 1.118336,-0.28482 0.393721,-0.28482 0.393721,-0.81258 0,-0.46073 -0.28482,-0.72042 -0.280631,-0.25969 -0.925663,-0.38954 l -0.515188,-0.10052 q -0.946606,-0.18848 -1.369647,-0.59058 -0.423041,-0.4021 -0.423041,-1.11834 0,-0.82932 0.582205,-1.30682 0.586393,-0.47749 1.612581,-0.47749 0.439795,0 0.896343,0.0796 0.456549,0.0796 0.934041,0.23874 z"
         style="stroke-width:0.21445231"
         id="path4818" />
      <path
         d="m 80.784285,167.47628 v 0.37697 h -3.543489 q 0.05026,0.79582 0.477492,1.21467 0.431417,0.41466 1.197917,0.41466 0.443983,0 0.858647,-0.1089 0.418852,-0.1089 0.829327,-0.3267 v 0.7288 q -0.414664,0.17592 -0.85027,0.26807 -0.435606,0.0921 -0.883778,0.0921 -1.122524,0 -1.780122,-0.65341 -0.653409,-0.65341 -0.653409,-1.76755 0,-1.15185 0.619901,-1.8262 0.62409,-0.67854 1.679597,-0.67854 0.946606,0 1.495303,0.61153 0.552884,0.60733 0.552884,1.65446 z m -0.770688,-0.22618 q -0.0084,-0.63246 -0.356024,-1.00943 -0.343459,-0.37697 -0.913098,-0.37697 -0.645032,0 -1.034565,0.3644 -0.385344,0.3644 -0.443983,1.02619 z"
         style="stroke-width:0.21445231"
         id="path4820" />
      <path
         d="m 82.509955,167.67314 q 0,0.85027 0.347648,1.33614 0.351836,0.48168 0.96336,0.48168 0.611524,0 0.96336,-0.48168 0.351836,-0.48587 0.351836,-1.33614 0,-0.85027 -0.351836,-1.33195 -0.351836,-0.48587 -0.96336,-0.48587 -0.611524,0 -0.96336,0.48587 -0.347648,0.48168 -0.347648,1.33195 z m 2.626204,1.63771 q -0.242935,0.41886 -0.615713,0.62409 -0.36859,0.20105 -0.887967,0.20105 -0.85027,0 -1.3864,-0.67854 -0.531943,-0.67854 -0.531943,-1.78431 0,-1.10577 0.531943,-1.78431 0.53613,-0.67854 1.3864,-0.67854 0.519377,0 0.887967,0.20524 0.372778,0.20105 0.615713,0.6199 v -0.71205 h 0.770688 v 6.47546 h -0.770688 z"
         style="stroke-width:0.21445231"
         id="path4822" />
    </g>
    <ellipse
       style="opacity:0;fill:#ff0000;fill-opacity:1;stroke-width:0.26458332"
       id="path45"
       cx="-35.151787"
       cy="222.3497"
       rx="7.3705359"
       ry="5.8586307" />
    <g
       aria-label="first   last"
       style="font-style:normal;font-weight:normal;font-size:3.88055563px;line-height:1.25;font-family:sans-serif;letter-spacing:0px;word-spacing:0px;display:inline;opacity:1;fill:#000000;fill-opacity:1;stroke:none;stroke-width:0.26458332"
       id="text876">
      <path
         d="m 6.7275693,218.83938 v 2.12218 H 6.3770309 v -1.85122 H 5.4201556 v 1.85122 H 5.0696171 v -1.85122 H 4.7361318 v -0.27096 h 0.3334853 v -0.14779 q 0,-0.34675 0.162953,-0.5116 0.1648478,-0.16674 0.5040175,-0.16674 h 0.3505385 v 0.28991 H 5.7536408 q -0.1875854,0 -0.2614827,0.0758 -0.072002,0.0758 -0.072002,0.27285 v 0.18758 z m -0.3505384,-0.82234 h 0.3505384 v 0.44149 H 6.3770309 Z"
         style="font-size:3.88055563px;stroke-width:0.26458332"
         id="path896" />
      <path
         d="m 8.6905847,219.16529 q -0.058739,-0.0341 -0.1288466,-0.0493 -0.068213,-0.0171 -0.1515842,-0.0171 -0.2955892,0 -0.4547526,0.19327 -0.1572686,0.19138 -0.1572686,0.55139 v 1.11793 H 7.4475942 v -2.12218 h 0.3505385 v 0.3297 q 0.1098986,-0.19327 0.2861152,-0.28612 0.1762166,-0.0947 0.4282254,-0.0947 0.036001,0 0.079582,0.006 0.04358,0.004 0.096635,0.0133 z"
         style="font-size:3.88055563px;stroke-width:0.26458332"
         id="path898" />
      <path
         d="m 10.41296,218.90191 v 0.3297 q -0.147794,-0.0758 -0.306958,-0.11369 -0.159163,-0.0379 -0.3296952,-0.0379 -0.2595879,0 -0.3903293,0.0796 -0.1288466,0.0796 -0.1288466,0.23874 0,0.12127 0.092845,0.19138 0.092845,0.0682 0.3732761,0.13074 l 0.1193726,0.0265 q 0.3713811,0.0796 0.5267551,0.22549 0.157269,0.144 0.157269,0.40359 0,0.29559 -0.234956,0.46802 -0.233061,0.17242 -0.642338,0.17242 -0.1705322,0 -0.3562228,-0.0341 -0.1837959,-0.0322 -0.3884346,-0.0985 v -0.36002 q 0.1932699,0.10043 0.3808554,0.15159 0.1875854,0.0493 0.3713813,0.0493 0.2463243,0 0.3789607,-0.0834 0.132636,-0.0853 0.132636,-0.23874 0,-0.14211 -0.09663,-0.21791 -0.09474,-0.0758 -0.4187513,-0.1459 l -0.1212674,-0.0284 q -0.3240112,-0.0682 -0.4680162,-0.20843 -0.144005,-0.14211 -0.144005,-0.38843 0,-0.29938 0.2122179,-0.46233 0.2122178,-0.16296 0.6025472,-0.16296 0.1932698,0 0.3638018,0.0284 0.170532,0.0284 0.314537,0.0853 z"
         style="font-size:3.88055563px;stroke-width:0.26458332"
         id="path900" />
      <path
         d="m 11.428575,218.23684 v 0.60254 h 0.71813 v 0.27096 h -0.71813 v 1.15204 q 0,0.25959 0.07011,0.33349 0.072,0.0739 0.289905,0.0739 h 0.358118 v 0.2918 h -0.358118 q -0.403593,0 -0.557072,-0.14969 -0.153479,-0.15158 -0.153479,-0.54949 v -1.15204 h -0.255798 v -0.27096 h 0.255798 v -0.60254 z"
         style="font-size:3.88055563px;stroke-width:0.26458332"
         id="path902" />
      <path
         d="m 16.313376,218.01325 h 0.348644 v 2.94831 h -0.348644 z"
         style="font-size:3.88055563px;stroke-width:0.26458332"
         id="path904" />
      <path
         d="m 18.354078,219.89479 q -0.422541,0 -0.585494,0.0966 -0.162953,0.0966 -0.162953,0.3297 0,0.18569 0.121267,0.29559 0.123162,0.108 0.333485,0.108 0.289905,0 0.464227,-0.20464 0.176217,-0.20653 0.176217,-0.54759 v -0.0777 z m 0.695392,-0.14401 v 1.21078 h -0.348643 v -0.32211 q -0.119373,0.19327 -0.297484,0.28611 -0.178112,0.091 -0.435805,0.091 -0.325906,0 -0.519176,-0.1819 -0.191375,-0.18379 -0.191375,-0.49075 0,-0.35812 0.238745,-0.54002 0.24064,-0.1819 0.716235,-0.1819 h 0.48886 v -0.0341 q 0,-0.24064 -0.159164,-0.37138 -0.157269,-0.13264 -0.443384,-0.13264 -0.181901,0 -0.354328,0.0436 -0.172427,0.0436 -0.33159,0.13075 v -0.32212 q 0.191375,-0.0739 0.371381,-0.1099 0.180006,-0.0379 0.350539,-0.0379 0.460437,0 0.687813,0.23875 0.227376,0.23874 0.227376,0.72381 z"
         style="font-size:3.88055563px;stroke-width:0.26458332"
         id="path906" />
      <path
         d="m 21.122384,218.90191 v 0.3297 q -0.147794,-0.0758 -0.306958,-0.11369 -0.159163,-0.0379 -0.329695,-0.0379 -0.259588,0 -0.390329,0.0796 -0.128847,0.0796 -0.128847,0.23874 0,0.12127 0.09285,0.19138 0.09285,0.0682 0.373276,0.13074 l 0.119373,0.0265 q 0.371381,0.0796 0.526755,0.22549 0.157269,0.144 0.157269,0.40359 0,0.29559 -0.234956,0.46802 -0.233061,0.17242 -0.642338,0.17242 -0.170532,0 -0.356223,-0.0341 -0.183796,-0.0322 -0.388434,-0.0985 v -0.36002 q 0.19327,0.10043 0.380855,0.15159 0.187585,0.0493 0.371381,0.0493 0.246325,0 0.378961,-0.0834 0.132636,-0.0853 0.132636,-0.23874 0,-0.14211 -0.09663,-0.21791 -0.09474,-0.0758 -0.418751,-0.1459 l -0.121268,-0.0284 q -0.324011,-0.0682 -0.468016,-0.20843 -0.144005,-0.14211 -0.144005,-0.38843 0,-0.29938 0.212218,-0.46233 0.212218,-0.16296 0.602547,-0.16296 0.19327,0 0.363802,0.0284 0.170533,0.0284 0.314537,0.0853 z"
         style="font-size:3.88055563px;stroke-width:0.26458332"
         id="path908" />
      <path
         d="m 22.138,218.23684 v 0.60254 h 0.71813 v 0.27096 H 22.138 v 1.15204 q 0,0.25959 0.07011,0.33349 0.072,0.0739 0.289905,0.0739 h 0.358118 v 0.2918 h -0.358118 q -0.403593,0 -0.557072,-0.14969 -0.153479,-0.15158 -0.153479,-0.54949 v -1.15204 h -0.255798 v -0.27096 h 0.255798 v -0.60254 z"
         style="font-size:3.88055563px;stroke-width:0.26458332"
         id="path910" />
    </g>
    <g
       aria-label="step"
       style="font-style:normal;font-weight:normal;font-size:3.88055563px;line-height:1.25;font-family:sans-serif;letter-spacing:0px;word-spacing:0px;fill:#000000;fill-opacity:1;stroke:none;stroke-width:0.26458332"
       id="text951">
      <path
         d="m 11.356978,234.65315 v 0.32969 q -0.147794,-0.0758 -0.306958,-0.11368 -0.159163,-0.0379 -0.329695,-0.0379 -0.259588,0 -0.39033,0.0796 -0.128846,0.0796 -0.128846,0.23875 0,0.12126 0.09285,0.19137 0.09285,0.0682 0.373276,0.13074 l 0.119373,0.0265 q 0.371381,0.0796 0.526755,0.22548 0.157269,0.14401 0.157269,0.4036 0,0.29558 -0.234956,0.46801 -0.233061,0.17243 -0.642338,0.17243 -0.170532,0 -0.356223,-0.0341 -0.183796,-0.0322 -0.3884345,-0.0985 v -0.36001 q 0.1932695,0.10042 0.3808555,0.15158 0.187585,0.0493 0.371381,0.0493 0.246324,0 0.378961,-0.0834 0.132636,-0.0853 0.132636,-0.23875 0,-0.14211 -0.09663,-0.2179 -0.09474,-0.0758 -0.418751,-0.1459 l -0.121268,-0.0284 q -0.324011,-0.0682 -0.468016,-0.20843 -0.144005,-0.14211 -0.144005,-0.38843 0,-0.29938 0.212218,-0.46234 0.212218,-0.16295 0.602547,-0.16295 0.19327,0 0.363802,0.0284 0.170532,0.0284 0.314537,0.0853 z"
         style="stroke-width:0.26458332"
         id="path997" />
      <path
         d="m 12.372593,233.98807 v 0.60255 h 0.71813 v 0.27096 h -0.71813 v 1.15204 q 0,0.25958 0.07011,0.33348 0.072,0.0739 0.289905,0.0739 h 0.358118 v 0.2918 h -0.358118 q -0.403593,0 -0.557072,-0.14969 -0.153479,-0.15158 -0.153479,-0.54949 v -1.15204 h -0.255798 v -0.27096 h 0.255798 v -0.60255 z"
         style="stroke-width:0.26458332"
         id="path999" />
      <path
         d="m 15.366381,235.56455 v 0.17053 h -1.603003 q 0.02274,0.36001 0.216007,0.54949 0.195165,0.18759 0.541914,0.18759 0.200849,0 0.388434,-0.0493 0.189481,-0.0493 0.375171,-0.14779 v 0.3297 q -0.187585,0.0796 -0.384645,0.12126 -0.197059,0.0417 -0.399803,0.0417 -0.507807,0 -0.805291,-0.29559 -0.295589,-0.29559 -0.295589,-0.79961 0,-0.52107 0.28043,-0.82613 0.282326,-0.30696 0.759816,-0.30696 0.428226,0 0.676445,0.27664 0.250114,0.27475 0.250114,0.74845 z m -0.348644,-0.10232 q -0.0038,-0.28612 -0.161058,-0.45665 -0.155374,-0.17053 -0.413067,-0.17053 -0.2918,0 -0.468016,0.16485 -0.174322,0.16485 -0.200849,0.46422 z"
         style="stroke-width:0.26458332"
         id="path1001" />
      <path
         d="m 16.275886,236.39447 v 1.12551 h -0.350539 v -2.92936 h 0.350539 v 0.32212 q 0.109898,-0.18948 0.276641,-0.28043 0.168637,-0.0928 0.401698,-0.0928 0.38654,0 0.62718,0.30696 0.242535,0.30696 0.242535,0.80718 0,0.50023 -0.242535,0.80719 -0.24064,0.30696 -0.62718,0.30696 -0.233061,0 -0.401698,-0.091 -0.166743,-0.0928 -0.276641,-0.28233 z m 1.186146,-0.74087 q 0,-0.38464 -0.159163,-0.60254 -0.157269,-0.2198 -0.43391,-0.2198 -0.276641,0 -0.435805,0.2198 -0.157268,0.2179 -0.157268,0.60254 0,0.38465 0.157268,0.60445 0.159164,0.2179 0.435805,0.2179 0.276641,0 0.43391,-0.2179 0.159163,-0.2198 0.159163,-0.60445 z"
         style="stroke-width:0.26458332"
         id="path1003" />
    </g>
    <g
       aria-label="reset"
       style="font-style:normal;font-weight:normal;font-size:3.88055563px;line-height:1.25;font-family:sans-serif;letter-spacing:0px;word-spacing:0px;fill:#000000;fill-opacity:1;stroke:none;stroke-width:0.26458332"
       id="text959">
      <path
         d="m 10.666852,250.41355 q -0.05874,-0.0341 -0.128847,-0.0493 -0.06821,-0.0171 -0.151584,-0.0171 -0.295589,0 -0.4547523,0.19327 Q 9.7744,250.73188 9.7744,251.09189 v 1.11793 H 9.4238616 v -2.12218 H 9.7744 v 0.3297 q 0.1098986,-0.19327 0.286115,-0.28611 0.176217,-0.0947 0.428226,-0.0947 0.036,0 0.07958,0.006 0.04358,0.004 0.09663,0.0133 z"
         style="stroke-width:0.26458332"
         id="path1006" />
      <path
         d="m 12.768188,251.06157 v 0.17054 h -1.603003 q 0.02274,0.36001 0.216008,0.54949 0.195164,0.18758 0.541913,0.18758 0.200849,0 0.388435,-0.0493 0.18948,-0.0493 0.375171,-0.1478 v 0.3297 q -0.187586,0.0796 -0.384645,0.12127 -0.19706,0.0417 -0.399804,0.0417 -0.507807,0 -0.805291,-0.29559 -0.295589,-0.29559 -0.295589,-0.7996 0,-0.52107 0.280431,-0.82614 0.282325,-0.30695 0.759816,-0.30695 0.428225,0 0.676444,0.27664 0.250114,0.27474 0.250114,0.74844 z m -0.348644,-0.10232 q -0.0038,-0.28611 -0.161058,-0.45664 -0.155374,-0.17054 -0.413067,-0.17054 -0.291799,0 -0.468016,0.16485 -0.174322,0.16485 -0.200849,0.46423 z"
         style="stroke-width:0.26458332"
         id="path1008" />
      <path
         d="m 14.693307,250.15017 v 0.3297 q -0.147794,-0.0758 -0.306958,-0.11369 -0.159163,-0.0379 -0.329695,-0.0379 -0.259588,0 -0.39033,0.0796 -0.128846,0.0796 -0.128846,0.23874 0,0.12127 0.09285,0.19138 0.09284,0.0682 0.373276,0.13074 l 0.119373,0.0265 q 0.371381,0.0796 0.526755,0.22548 0.157269,0.144 0.157269,0.40359 0,0.29559 -0.234956,0.46802 -0.233061,0.17242 -0.642338,0.17242 -0.170532,0 -0.356223,-0.0341 -0.183796,-0.0322 -0.388434,-0.0985 v -0.36002 q 0.193269,0.10043 0.380855,0.15159 0.187585,0.0493 0.371381,0.0493 0.246324,0 0.378961,-0.0834 0.132636,-0.0853 0.132636,-0.23874 0,-0.14211 -0.09664,-0.21791 -0.09474,-0.0758 -0.418751,-0.1459 l -0.121268,-0.0284 q -0.324011,-0.0682 -0.468016,-0.20843 -0.144005,-0.14211 -0.144005,-0.38843 0,-0.29938 0.212218,-0.46233 0.212218,-0.16295 0.602547,-0.16295 0.19327,0 0.363802,0.0284 0.170532,0.0284 0.314537,0.0853 z"
         style="stroke-width:0.26458332"
         id="path1010" />
      <path
         d="m 17.179288,251.06157 v 0.17054 h -1.603003 q 0.02274,0.36001 0.216008,0.54949 0.195165,0.18758 0.541913,0.18758 0.20085,0 0.388435,-0.0493 0.18948,-0.0493 0.375171,-0.1478 v 0.3297 q -0.187586,0.0796 -0.384645,0.12127 -0.19706,0.0417 -0.399803,0.0417 -0.507807,0 -0.805291,-0.29559 -0.29559,-0.29559 -0.29559,-0.7996 0,-0.52107 0.280431,-0.82614 0.282326,-0.30695 0.759816,-0.30695 0.428225,0 0.676444,0.27664 0.250114,0.27474 0.250114,0.74844 z m -0.348643,-0.10232 q -0.0038,-0.28611 -0.161059,-0.45664 -0.155373,-0.17054 -0.413066,-0.17054 -0.2918,0 -0.468017,0.16485 -0.174322,0.16485 -0.200849,0.46423 z"
         style="stroke-width:0.26458332"
         id="path1012" />
      <path
         d="m 18.096373,249.4851 v 0.60254 h 0.71813 v 0.27096 h -0.71813 v 1.15204 q 0,0.25959 0.07011,0.33349 0.072,0.0739 0.289905,0.0739 h 0.358117 v 0.2918 h -0.358117 q -0.403593,0 -0.557072,-0.14969 -0.153479,-0.15158 -0.153479,-0.54949 v -1.15204 h -0.255799 v -0.27096 h 0.255799 v -0.60254 z"
         style="stroke-width:0.26458332"
         id="path1014" />
    </g>
    <g
       aria-label="select"
       style="font-style:normal;font-weight:normal;font-size:3.88055563px;line-height:1.25;font-family:sans-serif;letter-spacing:0px;word-spacing:0px;fill:#000000;fill-opacity:1;stroke:none;stroke-width:0.26458332"
       id="text963">
      <path
         d="m 11.167991,268.671 v 0.3297 q -0.147795,-0.0758 -0.306958,-0.11369 -0.159164,-0.0379 -0.329696,-0.0379 -0.259588,0 -0.390329,0.0796 -0.128847,0.0796 -0.128847,0.23875 0,0.12127 0.09284,0.19137 0.09285,0.0682 0.373277,0.13075 l 0.119372,0.0265 q 0.371381,0.0796 0.526755,0.22548 0.157269,0.14401 0.157269,0.4036 0,0.29559 -0.234956,0.46801 -0.23306,0.17243 -0.642338,0.17243 -0.170532,0 -0.356223,-0.0341 -0.1837955,-0.0322 -0.3884342,-0.0985 v -0.36001 q 0.1932699,0.10043 0.3808552,0.15159 0.187586,0.0493 0.371381,0.0493 0.246325,0 0.378961,-0.0834 0.132636,-0.0853 0.132636,-0.23874 0,-0.14212 -0.09663,-0.21791 -0.09474,-0.0758 -0.418751,-0.1459 l -0.121268,-0.0284 q -0.3240108,-0.0682 -0.4680158,-0.20843 -0.144005,-0.14211 -0.144005,-0.38843 0,-0.29938 0.2122179,-0.46233 0.2122179,-0.16296 0.6025469,-0.16296 0.19327,0 0.363802,0.0284 0.170533,0.0284 0.314538,0.0853 z"
         style="stroke-width:0.26458332"
         id="path1017" />
      <path
         d="m 13.653972,269.5824 v 0.17053 h -1.603003 q 0.02274,0.36002 0.216007,0.5495 0.195165,0.18758 0.541914,0.18758 0.200849,0 0.388434,-0.0493 0.189481,-0.0493 0.375171,-0.1478 v 0.3297 q -0.187585,0.0796 -0.384645,0.12127 -0.197059,0.0417 -0.399803,0.0417 -0.507807,0 -0.805291,-0.29559 -0.295589,-0.29559 -0.295589,-0.7996 0,-0.52108 0.28043,-0.82614 0.282326,-0.30696 0.759816,-0.30696 0.428226,0 0.676445,0.27664 0.250114,0.27475 0.250114,0.74845 z m -0.348644,-0.10232 q -0.0038,-0.28611 -0.161058,-0.45665 -0.155374,-0.17053 -0.413067,-0.17053 -0.2918,0 -0.468016,0.16485 -0.174322,0.16485 -0.200849,0.46423 z"
         style="stroke-width:0.26458332"
         id="path1019" />
      <path
         d="m 14.226202,267.78234 h 0.348644 v 2.94831 h -0.348644 z"
         style="stroke-width:0.26458332"
         id="path1021" />
      <path
         d="m 17.117671,269.5824 v 0.17053 h -1.603003 q 0.02274,0.36002 0.216007,0.5495 0.195165,0.18758 0.541914,0.18758 0.200849,0 0.388434,-0.0493 0.18948,-0.0493 0.375171,-0.1478 v 0.3297 q -0.187585,0.0796 -0.384645,0.12127 -0.197059,0.0417 -0.399803,0.0417 -0.507807,0 -0.805291,-0.29559 -0.29559,-0.29559 -0.29559,-0.7996 0,-0.52108 0.280431,-0.82614 0.282326,-0.30696 0.759816,-0.30696 0.428225,0 0.676445,0.27664 0.250114,0.27475 0.250114,0.74845 z m -0.348644,-0.10232 q -0.0038,-0.28611 -0.161058,-0.45665 -0.155374,-0.17053 -0.413067,-0.17053 -0.2918,0 -0.468017,0.16485 -0.174321,0.16485 -0.200849,0.46423 z"
         style="stroke-width:0.26458332"
         id="path1023" />
      <path
         d="m 19.217112,268.68995 v 0.32591 q -0.147795,-0.0815 -0.297484,-0.12127 -0.147795,-0.0417 -0.299379,-0.0417 -0.33917,0 -0.526755,0.21601 -0.187586,0.21411 -0.187586,0.60255 0,0.38843 0.187586,0.60444 0.187585,0.21411 0.526755,0.21411 0.151584,0 0.299379,-0.0398 0.149689,-0.0417 0.297484,-0.12316 v 0.32212 q -0.1459,0.0682 -0.303169,0.10231 -0.155373,0.0341 -0.33159,0.0341 -0.479385,0 -0.761711,-0.30127 -0.282325,-0.30128 -0.282325,-0.81287 0,-0.51918 0.28422,-0.81666 0.286115,-0.29749 0.782553,-0.29749 0.161059,0 0.314538,0.0341 0.153479,0.0322 0.297484,0.0985 z"
         style="stroke-width:0.26458332"
         id="path1025" />
      <path
         d="m 20.172092,268.00593 v 0.60254 h 0.71813 v 0.27096 h -0.71813 v 1.15204 q 0,0.25959 0.07011,0.33348 0.072,0.0739 0.289905,0.0739 h 0.358117 v 0.2918 h -0.358117 q -0.403593,0 -0.557072,-0.14969 -0.153479,-0.15158 -0.153479,-0.54949 v -1.15204 h -0.255799 v -0.27096 h 0.255799 v -0.60254 z"
         style="stroke-width:0.26458332"
         id="path1027" />
    </g>
    <g
       aria-label="gate 1"
       style="font-style:normal;font-weight:normal;font-size:3.88055563px;line-height:1.25;font-family:sans-serif;letter-spacing:0px;word-spacing:0px;fill:#000000;fill-opacity:1;stroke:none;stroke-width:0.26458332"
       id="text967">
      <path
         d="m 109.86336,220.31903 q 0,-0.37896 -0.15727,-0.58739 -0.15538,-0.20842 -0.4377,-0.20842 -0.28043,0 -0.4377,0.20842 -0.15538,0.20843 -0.15538,0.58739 0,0.37707 0.15538,0.5855 0.15727,0.20843 0.4377,0.20843 0.28232,0 0.4377,-0.20843 0.15727,-0.20843 0.15727,-0.5855 z m 0.34864,0.82235 q 0,0.54191 -0.24064,0.80529 -0.24064,0.26527 -0.73708,0.26527 -0.1838,0 -0.34675,-0.0284 -0.16295,-0.0265 -0.31643,-0.0834 v -0.33917 q 0.15348,0.0834 0.30317,0.12316 0.14969,0.0398 0.30506,0.0398 0.34296,0 0.51349,-0.18001 0.17054,-0.17811 0.17054,-0.54001 v -0.17243 q -0.10801,0.18758 -0.27665,0.28043 -0.16863,0.0928 -0.40359,0.0928 -0.39033,0 -0.62907,-0.29748 -0.23875,-0.29748 -0.23875,-0.78824 0,-0.49265 0.23875,-0.79013 0.23874,-0.29748 0.62907,-0.29748 0.23496,0 0.40359,0.0928 0.16864,0.0928 0.27665,0.28043 v -0.32211 h 0.34864 z"
         style="stroke-width:0.26458332"
         id="path1030" />
      <path
         d="m 111.89458,220.33798 q -0.42254,0 -0.58549,0.0966 -0.16295,0.0966 -0.16295,0.32969 0,0.18569 0.12126,0.29559 0.12317,0.108 0.33349,0.108 0.2899,0 0.46423,-0.20463 0.17621,-0.20654 0.17621,-0.5476 v -0.0777 z m 0.6954,-0.144 v 1.21077 h -0.34865 v -0.32211 q -0.11937,0.19327 -0.29748,0.28611 -0.17811,0.0909 -0.43581,0.0909 -0.3259,0 -0.51917,-0.1819 -0.19138,-0.18379 -0.19138,-0.49075 0,-0.35812 0.23875,-0.54002 0.24064,-0.1819 0.71623,-0.1819 h 0.48886 v -0.0341 q 0,-0.24064 -0.15916,-0.37138 -0.15727,-0.13263 -0.44339,-0.13263 -0.1819,0 -0.35432,0.0436 -0.17243,0.0436 -0.33159,0.13074 v -0.32212 q 0.19137,-0.0739 0.37138,-0.1099 0.18,-0.0379 0.35054,-0.0379 0.46043,0 0.68781,0.23874 0.22738,0.23875 0.22738,0.72382 z"
         style="stroke-width:0.26458332"
         id="path1032" />
      <path
         d="m 113.65485,218.68003 v 0.60255 h 0.71814 v 0.27095 h -0.71814 v 1.15204 q 0,0.25959 0.0701,0.33349 0.072,0.0739 0.28991,0.0739 h 0.35812 v 0.29179 h -0.35812 q -0.4036,0 -0.55707,-0.14968 -0.15348,-0.15159 -0.15348,-0.5495 v -1.15204 h -0.2558 v -0.27095 h 0.2558 v -0.60255 z"
         style="stroke-width:0.26458332"
         id="path1034" />
      <path
         d="m 116.64864,220.2565 v 0.17054 h -1.603 q 0.0227,0.36001 0.21601,0.54949 0.19516,0.18758 0.54191,0.18758 0.20085,0 0.38844,-0.0493 0.18948,-0.0493 0.37517,-0.14779 v 0.32969 q -0.18759,0.0796 -0.38465,0.12127 -0.19706,0.0417 -0.3998,0.0417 -0.50781,0 -0.80529,-0.29559 -0.29559,-0.29558 -0.29559,-0.7996 0,-0.52107 0.28043,-0.82614 0.28232,-0.30695 0.75981,-0.30695 0.42823,0 0.67645,0.27664 0.25011,0.27474 0.25011,0.74844 z M 116.3,220.15418 q -0.004,-0.28611 -0.16106,-0.45664 -0.15537,-0.17053 -0.41307,-0.17053 -0.2918,0 -0.46801,0.16484 -0.17432,0.16485 -0.20085,0.46423 z"
         style="stroke-width:0.26458332"
         id="path1036" />
      <path
         d="m 118.57187,221.08264 h 0.62528 v -2.15818 l -0.68023,0.13642 v -0.34864 l 0.67644,-0.13643 h 0.38275 v 2.50683 h 0.62529 v 0.32211 h -1.62953 z"
         style="stroke-width:0.26458332"
         id="path1038" />
    </g>
    <g
       aria-label="gate 2"
       style="font-style:normal;font-weight:normal;font-size:3.88055563px;line-height:1.25;font-family:sans-serif;letter-spacing:0px;word-spacing:0px;fill:#000000;fill-opacity:1;stroke:none;stroke-width:0.26458332"
       id="text971">
      <path
         d="m 110.05234,234.49314 q 0,-0.37896 -0.15727,-0.58739 -0.15537,-0.20843 -0.4377,-0.20843 -0.28043,0 -0.43769,0.20843 -0.15538,0.20843 -0.15538,0.58739 0,0.37706 0.15538,0.58549 0.15726,0.20843 0.43769,0.20843 0.28233,0 0.4377,-0.20843 0.15727,-0.20843 0.15727,-0.58549 z m 0.34865,0.82234 q 0,0.54191 -0.24064,0.80529 -0.24064,0.26527 -0.73708,0.26527 -0.1838,0 -0.34675,-0.0284 -0.16295,-0.0265 -0.31643,-0.0834 v -0.33917 q 0.15348,0.0834 0.30317,0.12316 0.14969,0.0398 0.30506,0.0398 0.34296,0 0.51349,-0.18 0.17053,-0.17811 0.17053,-0.54002 v -0.17243 q -0.108,0.18759 -0.27664,0.28043 -0.16864,0.0928 -0.40359,0.0928 -0.39033,0 -0.62908,-0.29749 -0.23874,-0.29748 -0.23874,-0.78823 0,-0.49265 0.23874,-0.79014 0.23875,-0.29748 0.62908,-0.29748 0.23495,0 0.40359,0.0928 0.16864,0.0928 0.27664,0.28043 v -0.32211 h 0.34865 z"
         style="stroke-width:0.26458332"
         id="path1041" />
      <path
         d="m 112.08357,234.51208 q -0.42254,0 -0.58549,0.0966 -0.16296,0.0966 -0.16296,0.32969 0,0.18569 0.12127,0.29559 0.12316,0.10801 0.33349,0.10801 0.2899,0 0.46422,-0.20464 0.17622,-0.20654 0.17622,-0.5476 v -0.0777 z m 0.69539,-0.144 v 1.21078 h -0.34864 v -0.32212 q -0.11937,0.19327 -0.29748,0.28612 -0.17812,0.091 -0.43581,0.091 -0.3259,0 -0.51917,-0.1819 -0.19138,-0.1838 -0.19138,-0.49076 0,-0.35812 0.23875,-0.54002 0.24064,-0.1819 0.71623,-0.1819 h 0.48886 v -0.0341 q 0,-0.24064 -0.15916,-0.37139 -0.15727,-0.13263 -0.44339,-0.13263 -0.1819,0 -0.35433,0.0436 -0.17242,0.0436 -0.33159,0.13074 v -0.32212 q 0.19138,-0.0739 0.37139,-0.1099 0.18,-0.0379 0.35053,-0.0379 0.46044,0 0.68782,0.23874 0.22737,0.23875 0.22737,0.72382 z"
         style="stroke-width:0.26458332"
         id="path1043" />
      <path
         d="m 113.84384,232.85413 v 0.60255 h 0.71813 v 0.27096 h -0.71813 v 1.15204 q 0,0.25958 0.0701,0.33348 0.072,0.0739 0.28991,0.0739 h 0.35811 v 0.2918 h -0.35811 q -0.4036,0 -0.55708,-0.14969 -0.15348,-0.15159 -0.15348,-0.54949 v -1.15204 h -0.25579 v -0.27096 h 0.25579 v -0.60255 z"
         style="stroke-width:0.26458332"
         id="path1045" />
      <path
         d="m 116.83763,234.43061 v 0.17053 h -1.603 q 0.0227,0.36001 0.21601,0.54949 0.19516,0.18759 0.54191,0.18759 0.20085,0 0.38843,-0.0493 0.18948,-0.0493 0.37517,-0.14779 v 0.32969 q -0.18758,0.0796 -0.38464,0.12127 -0.19706,0.0417 -0.3998,0.0417 -0.50781,0 -0.8053,-0.29559 -0.29558,-0.29559 -0.29558,-0.79961 0,-0.52107 0.28043,-0.82613 0.28232,-0.30696 0.75981,-0.30696 0.42823,0 0.67645,0.27664 0.25011,0.27475 0.25011,0.74845 z m -0.34864,-0.10232 q -0.004,-0.28612 -0.16106,-0.45665 -0.15537,-0.17053 -0.41307,-0.17053 -0.2918,0 -0.46801,0.16485 -0.17433,0.16484 -0.20085,0.46422 z"
         style="stroke-width:0.26458332"
         id="path1047" />
      <path
         d="m 119.02423,235.25674 h 1.33584 v 0.32212 h -1.79627 v -0.32212 q 0.2179,-0.22548 0.59307,-0.60444 0.37706,-0.38086 0.4737,-0.49075 0.1838,-0.20654 0.2558,-0.34865 0.0739,-0.144 0.0739,-0.28232 0,-0.22549 -0.15917,-0.3676 -0.15727,-0.14211 -0.41117,-0.14211 -0.18001,0 -0.38086,0.0625 -0.19895,0.0625 -0.42633,0.18948 v -0.38654 q 0.23117,-0.0928 0.43202,-0.14021 0.20085,-0.0474 0.36759,-0.0474 0.43959,0 0.70108,0.21979 0.26148,0.2198 0.26148,0.58739 0,0.17433 -0.0663,0.33159 -0.0644,0.15538 -0.23685,0.3676 -0.0474,0.0549 -0.30127,0.31832 -0.25391,0.26149 -0.71624,0.73329 z"
         style="stroke-width:0.26458332"
         id="path1049" />
    </g>
    <g
       aria-label="cv"
       style="font-style:normal;font-weight:normal;font-size:3.88055563px;line-height:1.25;font-family:sans-serif;letter-spacing:0px;word-spacing:0px;fill:#000000;fill-opacity:1;stroke:none;stroke-width:0.26458332"
       id="text975">
      <path
         d="m 112.07296,247.33428 v 0.32591 q -0.14779,-0.0815 -0.29748,-0.12127 -0.1478,-0.0417 -0.29938,-0.0417 -0.33917,0 -0.52676,0.216 -0.18758,0.21412 -0.18758,0.60255 0,0.38843 0.18758,0.60444 0.18759,0.21411 0.52676,0.21411 0.15158,0 0.29938,-0.0398 0.14969,-0.0417 0.29748,-0.12316 v 0.32212 q -0.1459,0.0682 -0.30317,0.10232 -0.15537,0.0341 -0.33159,0.0341 -0.47938,0 -0.76171,-0.30127 -0.28232,-0.30127 -0.28232,-0.81287 0,-0.51918 0.28422,-0.81666 0.28611,-0.29748 0.78255,-0.29748 0.16106,0 0.31454,0.0341 0.15348,0.0322 0.29748,0.0985 z"
         style="stroke-width:0.26458332"
         id="path1052" />
      <path
         d="m 112.43297,247.25281 h 0.36949 l 0.66318,1.78111 0.66318,-1.78111 h 0.36949 l -0.79582,2.12217 h -0.4737 z"
         style="stroke-width:0.26458332"
         id="path1054" />
    </g>
    <g
       aria-label="slew"
       style="font-style:normal;font-weight:normal;font-size:3.88055563px;line-height:1.25;font-family:sans-serif;letter-spacing:0px;word-spacing:0px;fill:#000000;fill-opacity:1;stroke:none;stroke-width:0.26458332"
       id="text979">
      <path
         d="m 110.76471,261.11149 v 0.3297 q -0.1478,-0.0758 -0.30696,-0.11369 -0.15917,-0.0379 -0.3297,-0.0379 -0.25959,0 -0.39033,0.0796 -0.12884,0.0796 -0.12884,0.23874 0,0.12127 0.0928,0.19138 0.0928,0.0682 0.37328,0.13074 l 0.11937,0.0265 q 0.37138,0.0796 0.52676,0.22549 0.15726,0.144 0.15726,0.40359 0,0.29559 -0.23495,0.46801 -0.23306,0.17243 -0.64234,0.17243 -0.17053,0 -0.35622,-0.0341 -0.1838,-0.0322 -0.38844,-0.0985 v -0.36002 q 0.19327,0.10043 0.38086,0.15159 0.18758,0.0493 0.37138,0.0493 0.24632,0 0.37896,-0.0834 0.13264,-0.0853 0.13264,-0.23874 0,-0.14211 -0.0966,-0.21791 -0.0947,-0.0758 -0.41875,-0.1459 l -0.12127,-0.0284 q -0.32401,-0.0682 -0.46801,-0.20843 -0.14401,-0.14211 -0.14401,-0.38843 0,-0.29938 0.21222,-0.46233 0.21222,-0.16296 0.60255,-0.16296 0.19327,0 0.3638,0.0284 0.17053,0.0284 0.31454,0.0853 z"
         style="stroke-width:0.26458332"
         id="path1064" />
      <path
         d="m 111.43547,260.22283 h 0.34864 v 2.94831 h -0.34864 z"
         style="stroke-width:0.26458332"
         id="path1066" />
      <path
         d="m 114.32693,262.02289 v 0.17053 h -1.603 q 0.0227,0.36002 0.21601,0.5495 0.19516,0.18758 0.54191,0.18758 0.20085,0 0.38844,-0.0493 0.18948,-0.0493 0.37517,-0.1478 v 0.3297 q -0.18759,0.0796 -0.38465,0.12127 -0.19706,0.0417 -0.3998,0.0417 -0.50781,0 -0.80529,-0.29559 -0.29559,-0.29559 -0.29559,-0.7996 0,-0.52107 0.28043,-0.82614 0.28233,-0.30696 0.75982,-0.30696 0.42822,0 0.67644,0.27665 0.25011,0.27474 0.25011,0.74844 z m -0.34864,-0.10232 q -0.004,-0.28611 -0.16106,-0.45664 -0.15537,-0.17054 -0.41306,-0.17054 -0.2918,0 -0.46802,0.16485 -0.17432,0.16485 -0.20085,0.46423 z"
         style="stroke-width:0.26458332"
         id="path1068" />
      <path
         d="m 114.69642,261.04896 h 0.34864 l 0.43581,1.65606 0.43391,-1.65606 h 0.41117 l 0.43581,1.65606 0.43391,-1.65606 h 0.34864 l -0.55518,2.12218 h -0.41117 l -0.45665,-1.73943 -0.45854,1.73943 h -0.41117 z"
         style="stroke-width:0.26458332"
         id="path1070" />
    </g>
    <g
       aria-label="eoc"
       style="font-style:normal;font-weight:normal;font-size:3.88055563px;line-height:1.25;font-family:sans-serif;letter-spacing:0px;word-spacing:0px;fill:#000000;fill-opacity:1;stroke:none;stroke-width:0.26458332"
       id="text983">
      <path
         d="m 111.03806,277.33091 v 0.17053 h -1.60301 q 0.0227,0.36001 0.21601,0.54949 0.19517,0.18759 0.54192,0.18759 0.20084,0 0.38843,-0.0493 0.18948,-0.0493 0.37517,-0.14779 v 0.32969 q -0.18758,0.0796 -0.38464,0.12127 -0.19706,0.0417 -0.39981,0.0417 -0.5078,0 -0.80529,-0.29559 -0.29559,-0.29559 -0.29559,-0.79961 0,-0.52107 0.28043,-0.82613 0.28233,-0.30696 0.75982,-0.30696 0.42822,0 0.67644,0.27664 0.25012,0.27475 0.25012,0.74845 z m -0.34865,-0.10232 q -0.004,-0.28612 -0.16105,-0.45665 -0.15538,-0.17053 -0.41307,-0.17053 -0.2918,0 -0.46802,0.16484 -0.17432,0.16485 -0.20085,0.46423 z"
         style="stroke-width:0.26458332"
         id="path1057" />
      <path
         d="m 112.43263,276.60141 q -0.28043,0 -0.44338,0.21979 -0.16295,0.21791 -0.16295,0.59876 0,0.38086 0.16105,0.60065 0.16296,0.21791 0.44528,0.21791 0.27854,0 0.44149,-0.2198 0.16295,-0.2198 0.16295,-0.59876 0,-0.37706 -0.16295,-0.59686 -0.16295,-0.22169 -0.44149,-0.22169 z m 0,-0.29559 q 0.45475,0 0.71434,0.29559 0.25959,0.29559 0.25959,0.81855 0,0.52107 -0.25959,0.81856 -0.25959,0.29559 -0.71434,0.29559 -0.45665,0 -0.71623,-0.29559 -0.2577,-0.29749 -0.2577,-0.81856 0,-0.52296 0.2577,-0.81855 0.25958,-0.29559 0.71623,-0.29559 z"
         style="stroke-width:0.26458332"
         id="path1059" />
      <path
         d="m 115.50979,276.43845 v 0.32591 q -0.14779,-0.0815 -0.29748,-0.12127 -0.1478,-0.0417 -0.29938,-0.0417 -0.33917,0 -0.52676,0.216 -0.18758,0.21412 -0.18758,0.60255 0,0.38844 0.18758,0.60444 0.18759,0.21412 0.52676,0.21412 0.15158,0 0.29938,-0.0398 0.14969,-0.0417 0.29748,-0.12317 v 0.32212 q -0.1459,0.0682 -0.30317,0.10232 -0.15537,0.0341 -0.33159,0.0341 -0.47938,0 -0.76171,-0.30128 -0.28232,-0.30127 -0.28232,-0.81287 0,-0.51917 0.28422,-0.81666 0.28611,-0.29748 0.78255,-0.29748 0.16106,0 0.31454,0.0341 0.15348,0.0322 0.29748,0.0985 z"
         style="stroke-width:0.26458332"
         id="path1061" />
    </g>
  </g>
  <g
     inkscape:groupmode="layer"
     id="layer2"
     inkscape:label="components"
     style="display:none;opacity:1">
    <circle
       cy="60.369797"
       cx="36.759865"
       id="circle3874"
       style="display:inline;fill:#ff0000;fill-opacity:1;stroke-width:0.29352215"
       r="8.875"
       inkscape:transform-center-x="5.858631"
       inkscape:transform-center-y="2.7338664e-06"
       inkscape:label="cvParam1" />
    <circle
       r="8.875"
       style="display:inline;fill:#ff0000;fill-opacity:1;stroke-width:0.29352215"
       id="circle3876"
       cx="54.39875"
       cy="60.369797"
       inkscape:transform-center-x="5.858631"
       inkscape:transform-center-y="2.7338664e-06"
       inkscape:label="cvParam2" />
    <circle
       cy="60.369797"
       cx="89.676529"
       id="circle3878"
       style="display:inline;fill:#ff0000;fill-opacity:1;stroke-width:0.29352215"
       r="8.875"
       inkscape:label="cvParam4" />
    <circle
       r="8.875"
       style="display:inline;fill:#ff0000;fill-opacity:1;stroke-width:0.29352215"
       id="circle3880"
       cx="72.037643"
       cy="60.369797"
       inkscape:label="cvParam3" />
    <circle
       inkscape:transform-center-y="2.7338664e-06"
       inkscape:transform-center-x="5.858631"
       r="8.875"
       style="display:inline;fill:#ff0000;fill-opacity:1;stroke-width:0.29352215"
       id="circle3882"
       cx="36.759865"
       cy="78.134666"
       inkscape:label="cvParam5" />
    <circle
       inkscape:transform-center-y="2.7338664e-06"
       inkscape:transform-center-x="5.858631"
       cy="78.134682"
       cx="54.39875"
       id="circle3884"
       style="display:inline;fill:#ff0000;fill-opacity:1;stroke-width:0.29352215"
       r="8.875"
       inkscape:label="cvParam6" />
    <circle
       r="8.875"
       style="display:inline;fill:#ff0000;fill-opacity:1;stroke-width:0.29352215"
       id="circle3886"
       cx="89.676529"
       cy="78.134682"
       inkscape:label="cvParam8" />
    <circle
       cy="78.134682"
       cx="72.037643"
       id="circle3888"
       style="display:inline;fill:#ff0000;fill-opacity:1;stroke-width:0.29352215"
       r="8.875"
       inkscape:label="cvParam7" />
    <circle
       cy="95.899559"
       cx="36.759865"
       id="circle3890"
       style="display:inline;fill:#ff0000;fill-opacity:1;stroke-width:0.29352215"
       r="8.875"
       inkscape:transform-center-x="5.858631"
       inkscape:transform-center-y="2.7338664e-06"
       inkscape:label="cvParam9" />
    <circle
       r="8.875"
       style="display:inline;fill:#ff0000;fill-opacity:1;stroke-width:0.29352215"
       id="circle3892"
       cx="54.39875"
       cy="95.899559"
       inkscape:transform-center-x="5.858631"
       inkscape:transform-center-y="2.7338664e-06"
       inkscape:label="cvParam10" />
    <circle
       cy="95.899559"
       cx="89.676529"
       id="circle3894"
       style="display:inline;fill:#ff0000;fill-opacity:1;stroke-width:0.29352215"
       r="8.875"
       inkscape:label="cvParam12" />
    <circle
       r="8.875"
       style="display:inline;fill:#ff0000;fill-opacity:1;stroke-width:0.29352215"
       id="circle3896"
       cx="72.037643"
       cy="95.899559"
       inkscape:label="cvParam11" />
    <circle
       inkscape:transform-center-y="2.7338664e-06"
       inkscape:transform-center-x="5.858631"
       r="8.875"
       style="display:inline;fill:#ff0000;fill-opacity:1;stroke-width:0.29352215"
       id="circle3898"
       cx="36.759865"
       cy="113.66442"
       inkscape:label="cvParam13" />
    <circle
       inkscape:transform-center-y="2.7338664e-06"
       inkscape:transform-center-x="5.858631"
       cy="113.66442"
       cx="54.39875"
       id="circle3900"
       style="display:inline;fill:#ff0000;fill-opacity:1;stroke-width:0.29352215"
       r="8.875"
       inkscape:label="cvParam14" />
    <circle
       r="8.875"
       style="display:inline;fill:#ff0000;fill-opacity:1;stroke-width:0.29352215"
       id="circle3902"
       cx="89.676529"
       cy="113.66442"
       inkscape:label="cvParam16" />
    <circle
       cy="113.66442"
       cx="72.037643"
       id="circle3904"
       style="display:inline;fill:#ff0000;fill-opacity:1;stroke-width:0.29352215"
       r="8.875"
       inkscape:label="cvParam15" />
    <circle
       style="opacity:1;fill:#00ff00;fill-opacity:1;stroke-width:0.10961444"
       id="path49"
       cx="13.260429"
       cy="75.552078"
       r="4"
       inkscape:label="stepInput" />
    <circle
       r="4"
       cy="90.671127"
       cx="13.449418"
       id="circle856"
       style="opacity:1;fill:#00ff00;fill-opacity:1;stroke-width:0.10961444"
       inkscape:label="resetInput" />
    <circle
       style="opacity:1;fill:#00ff00;fill-opacity:1;stroke-width:0.10961444"
       id="circle858"
       cx="13.449418"
       cy="108.81399"
       r="4"
       inkscape:label="patternSelectInput" />
    <circle
       r="4"
       cy="59.677082"
       cx="19.686026"
       id="circle860"
       style="opacity:1;fill:#00ff00;fill-opacity:1;stroke-width:0.10961444"
       inkscape:label="lastStepInput" />
    <circle
       inkscape:label="firstStepInput"
       style="opacity:1;fill:#00ff00;fill-opacity:1;stroke-width:0.10961444"
       id="circle862"
       cx="7.4017992"
       cy="59.488091"
       r="4" />
    <circle
       inkscape:label="gate1output"
       r="4"
       cy="59.677082"
       cx="112.47918"
       id="circle864"
       style="opacity:1;fill:#0000ff;fill-opacity:1;stroke-width:0.10961444" />
    <circle
       style="opacity:1;fill:#0000ff;fill-opacity:1;stroke-width:0.10961444"
       id="circle866"
       cx="112.85715"
       cy="72.528275"
       r="4"
       inkscape:label="gate2output" />
    <circle
       inkscape:label="cvOutput"
       r="4"
       cy="86.324409"
       cx="112.66817"
       id="circle868"
       style="opacity:1;fill:#0000ff;fill-opacity:1;stroke-width:0.10961444" />
    <circle
       style="opacity:1;fill:#0000ff;fill-opacity:1;stroke-width:0.10961444"
       id="circle870"
       cx="113.04615"
       cy="100.30952"
       r="4"
       inkscape:label="slewOutput" />
    <circle
       inkscape:label="eocOutput"
       r="4"
       cy="115.99554"
       cx="113.23513"
       id="circle872"
       style="opacity:1;fill:#0000ff;fill-opacity:1;stroke-width:0.10961444" />
  </g>
</svg>
