<?xml version="1.0" encoding="UTF-8" standalone="no"?>
<!-- Created with Inkscape (http://www.inkscape.org/) -->

<svg
   xmlns:osb="http://www.openswatchbook.org/uri/2009/osb"
   xmlns:dc="http://purl.org/dc/elements/1.1/"
   xmlns:cc="http://creativecommons.org/ns#"
   xmlns:rdf="http://www.w3.org/1999/02/22-rdf-syntax-ns#"
   xmlns:svg="http://www.w3.org/2000/svg"
   xmlns="http://www.w3.org/2000/svg"
   xmlns:sodipodi="http://sodipodi.sourceforge.net/DTD/sodipodi-0.dtd"
   xmlns:inkscape="http://www.inkscape.org/namespaces/inkscape"
   width="10mm"
   height="10mm"
   viewBox="0 0 10 10"
   version="1.1"
   id="svg825"
   inkscape:version="0.92.4 (5da689c313, 2019-01-14)"
   sodipodi:docname="ltmMediumKnob.svg">
  <defs
     id="defs819">
    <linearGradient
       id="linearGradient1397"
       osb:paint="solid">
      <stop
         style="stop-color:#fbfbfb;stop-opacity:1;"
         offset="0"
         id="stop1395" />
    </linearGradient>
  </defs>
  <sodipodi:namedview
     id="base"
     pagecolor="#ffffff"
     bordercolor="#666666"
     borderopacity="1.0"
     inkscape:pageopacity="0.0"
     inkscape:pageshadow="2"
     inkscape:zoom="11.2"
     inkscape:cx="16.112277"
     inkscape:cy="27.240775"
     inkscape:document-units="mm"
     inkscape:current-layer="layer1"
     showgrid="false"
     inkscape:window-width="1920"
     inkscape:window-height="1017"
     inkscape:window-x="-8"
     inkscape:window-y="-8"
     inkscape:window-maximized="1"
     inkscape:pagecheckerboard="false" />
  <metadata
     id="metadata822">
    <rdf:RDF>
      <cc:Work
         rdf:about="">
        <dc:format>image/svg+xml</dc:format>
        <dc:type
           rdf:resource="http://purl.org/dc/dcmitype/StillImage" />
        <dc:title></dc:title>
      </cc:Work>
    </rdf:RDF>
  </metadata>
  <g
     inkscape:label="Calque 1"
     inkscape:groupmode="layer"
     id="layer1"
     transform="translate(0,-287)">
    <path
       style="opacity:1;fill:#010101;fill-opacity:1;stroke-width:0.20939006"
       d="M 5.0002117,287.00009 A 5,5 0 0 0 0,292.0003 5,5 0 0 0 5.0002117,297 5,5 0 0 0 9.9999064,292.0003 5,5 0 0 0 5.0002117,287.00009 Z m 0,3.75016 a 1.25,1.25 0 0 1 1.2495361,1.25005 1.25,1.25 0 0 1 -1.2495361,1.24954 1.25,1.25 0 0 1 -1.250053,-1.24954 1.25,1.25 0 0 1 1.250053,-1.25005 z"
       id="path1373"
       inkscape:connector-curvature="0" />
    <path
       style="opacity:1;fill:#7c7c7c;fill-opacity:1;stroke:none;stroke-width:0.84872222;stroke-linecap:round;stroke-linejoin:bevel;stroke-miterlimit:4;stroke-dasharray:none;stroke-opacity:1"
       d="m 5.0002117,290.50014 a 1.5,1.5 0 0 0 -1.5001668,1.50016 1.5,1.5 0 0 0 1.5001668,1.49965 1.5,1.5 0 0 0 1.4996498,-1.49965 1.5,1.5 0 0 0 -1.4996498,-1.50016 z m 0,0.25011 a 1.25,1.25 0 0 1 1.2500528,1.25005 1.25,1.25 0 0 1 -1.2500528,1.25006 1.25,1.25 0 0 1 -1.250053,-1.25006 1.25,1.25 0 0 1 1.250053,-1.25005 z"
       id="circle829"
       inkscape:connector-curvature="0" />
    <path
       style="opacity:1;fill:#717171;fill-opacity:1;stroke:none;stroke-width:1.21024001;stroke-linecap:round;stroke-linejoin:round;stroke-miterlimit:4;stroke-dasharray:none;stroke-opacity:1"
       d="m 5.0002115,287.3502 a 4.6500002,4.6500002 0 0 0 -4.65036194,4.64985 4.6500002,4.6500002 0 0 0 4.65036194,4.64984 4.6500002,4.6500002 0 0 0 4.6498453,-4.64984 4.6500002,4.6500002 0 0 0 -4.6498453,-4.64985 z m 0,0.99994 a 3.6500001,3.6500001 0 0 1 3.649906,3.64991 3.6500001,3.6500001 0 0 1 -3.649906,3.6499 3.6500001,3.6500001 0 0 1 -3.649907,-3.6499 3.6500001,3.6500001 0 0 1 3.649907,-3.64991 z"
       id="circle838"
       inkscape:connector-curvature="0" />
    <rect
       style="opacity:1;fill:#d8d8d8;fill-opacity:1;stroke:#717171;stroke-width:0.25472099;stroke-linecap:round;stroke-linejoin:bevel;stroke-miterlimit:4;stroke-dasharray:none;stroke-opacity:1"
       id="rect1383"
       width="0.84664416"
       height="2.8073955"
       x="4.5766778"
       y="287.77737" />
  </g>
</svg>
